<svg width="25" height="25" viewBox="0 0 25 25" fill="none" xmlns="http://www.w3.org/2000/svg">
  <path opacity="0.35" d="M12.5072 22.615C18.0301 22.615 22.5072 18.1378 22.5072 12.615C22.5072 7.09214 18.0301 2.61499 12.5072 2.61499C6.98435 2.61499 2.5072 7.09214 2.5072 12.615C2.5072 18.1378 6.98435 22.615 12.5072 22.615Z" fill="#47C3CD"/>
  <path d="M17.5072 11.615H14.5072C13.9552 11.615 13.5072 11.167 13.5072 10.615V7.61499C13.5072 7.06299 13.0592 6.61499 12.5072 6.61499C11.9552 6.61499 11.5072 7.06299 11.5072 7.61499V10.615C11.5072 11.167 11.0592 11.615 10.5072 11.615H7.5072C6.9552 11.615 6.5072 12.063 6.5072 12.615C6.5072 13.167 6.9552 13.615 7.5072 13.615H10.5072C11.0592 13.615 11.5072 14.063 11.5072 14.615V17.615C11.5072 18.167 11.9552 18.615 12.5072 18.615C13.0592 18.615 13.5072 18.167 13.5072 17.615V14.615C13.5072 14.063 13.9552 13.615 14.5072 13.615H17.5072C18.0592 13.615 18.5072 13.167 18.5072 12.615C18.5072 12.063 18.0592 11.615 17.5072 11.615Z" fill="#47C3CD"/>
</svg>
