<svg width="29" height="32" viewBox="0 0 29 32" fill="none" xmlns="http://www.w3.org/2000/svg">
  <g clip-path="url(#clip0_296_3333)">
    <path opacity="0.35" d="M2.4091 7.15767C2.4091 5.05705 3.97593 3.35449 5.9091 3.35449C7.02443 3.35449 8.00676 3.93257 8.64726 4.81491C10.2689 3.88567 12.1146 3.35449 14.0758 3.35449C20.5193 3.35449 25.7424 9.0301 25.7424 16.0317C25.7424 23.0334 20.5193 28.709 14.0758 28.709C7.63226 28.709 2.4091 23.0334 2.4091 16.0317C2.4091 13.9007 2.89793 11.8964 3.7531 10.133C2.9411 9.43704 2.4091 8.36961 2.4091 7.15767Z" fill="#FBD862"/>
    <path d="M5.9091 0.818848C9.13026 0.818848 11.7424 3.65728 11.7424 7.15747C11.7424 9.66376 9.40793 13.1208 7.69293 15.3229C6.76076 16.5196 5.05743 16.5196 4.12527 15.3229C2.41027 13.1208 0.0757642 9.66376 0.0757642 7.15747C0.0757642 3.65728 2.68793 0.818848 5.9091 0.818848ZM5.9091 9.87421C7.28926 9.87421 8.40926 8.65846 8.40926 7.15747C8.40926 5.65649 7.28926 4.44074 5.9091 4.44074C4.52893 4.44074 3.40893 5.65775 3.40893 7.15747C3.40893 8.65719 4.52893 9.87421 5.9091 9.87421Z" fill="#FBD862"/>
    <path d="M5.07376 18.6572C5.77143 21.4792 7.55876 23.8168 9.92126 25.0998C9.06843 23.2552 8.51076 20.7908 8.32526 17.9904C8.7476 17.7102 9.14543 17.3819 9.47326 16.961C10.0636 16.2029 10.5804 15.4752 11.0588 14.764H17.5431C17.2853 9.309 15.4023 5.88994 14.0758 5.88994C14.0466 5.88994 14.0151 5.90135 13.9848 5.90389C13.8693 5.01901 13.6336 4.17851 13.2953 3.39759C13.5543 3.37858 13.8121 3.35449 14.0758 3.35449C20.5088 3.35449 25.7424 9.04151 25.7424 16.0317C25.7424 23.022 20.5088 28.709 14.0758 28.709C7.9671 28.709 2.95043 23.5798 2.4581 17.0789C3.15226 17.9118 4.06926 18.4594 5.07376 18.6572ZM23.3286 17.2995H19.8823C19.7528 20.3952 19.1543 23.1018 18.2303 25.101C20.9626 23.6165 22.9319 20.7236 23.3286 17.2995ZM19.8811 14.764H23.3286C22.9331 11.3399 20.9626 8.44694 18.2303 6.96244C19.1531 8.96164 19.7528 11.6682 19.8811 14.764ZM14.0758 26.1735C15.4023 26.1735 17.2853 22.7545 17.5431 17.2995H10.6073C10.8663 22.7545 12.7493 26.1735 14.0758 26.1735Z" fill="#FBD862"/>
  </g>
  <defs>
    <clipPath id="clip0_296_3333">
      <rect width="28" height="30.4254" fill="white" transform="matrix(-1 0 0 1 28.0757 0.818848)"/>
    </clipPath>
  </defs>
</svg>
