<svg width="24" height="24" viewBox="0 0 24 24" fill="none" xmlns="http://www.w3.org/2000/svg">
  <path d="M10 20C9.48801 20 8.97701 19.805 8.58601 19.414L2.58601 13.414C1.80501 12.633 1.80501 11.367 2.58601 10.586L8.58601 4.586C9.36701 3.805 10.633 3.805 11.414 4.586C12.195 5.367 12.195 6.633 11.414 7.414L6.82801 12L11.414 16.586C12.195 17.367 12.195 18.633 11.414 19.414C11.023 19.805 10.512 20 10 20Z" fill="#47C3CD"/>
  <path opacity="0.35" d="M20 20C19.488 20 18.977 19.805 18.586 19.414L12.586 13.414C11.805 12.633 11.805 11.367 12.586 10.586L18.586 4.586C19.367 3.805 20.633 3.805 21.414 4.586C22.195 5.367 22.195 6.633 21.414 7.414L16.828 12L21.414 16.586C22.195 17.367 22.195 18.633 21.414 19.414C21.023 19.805 20.512 20 20 20Z" fill="#47C3CD"/>
</svg>
