<svg width="53" height="48" viewBox="0 0 53 48" fill="none" xmlns="http://www.w3.org/2000/svg">
  <path d="M30.9503 35.9999L35.2836 39.9999H11.2552C7.65858 39.9999 4.75525 37.3199 4.75525 33.9999V11.9999C4.75525 9.77988 6.68358 7.99988 9.08858 7.99988V33.9999C9.08858 35.0999 10.0636 35.9999 11.2552 35.9999H30.9503Z" fill="url(#paint0_linear_92_124)"/>
  <path d="M48.0886 11.9999V32.2399L43.7552 28.2599V7.99988C46.1386 7.99988 48.0886 9.77988 48.0886 11.9999Z" fill="url(#paint1_linear_92_124)"/>
  <path opacity="0.35" d="M32.6055 3.99988C30.1442 3.99988 27.893 5.28388 26.7923 7.31588L26.4218 7.99988L26.0513 7.31588C24.9507 5.28388 22.6995 3.99988 20.2382 3.99988H13.4218C11.0277 3.99988 9.0885 5.78988 9.0885 7.99988V33.9999C9.0885 35.1039 10.0592 35.9999 11.2552 35.9999H26.4218V39.9999H41.5885C45.1787 39.9999 48.0885 37.3139 48.0885 33.9999V21.9999H43.7552V7.99988C43.7552 5.78988 41.816 3.99988 39.4218 3.99988H32.6055Z" fill="url(#paint2_linear_92_124)"/>
  <path d="M48.3875 43.2819C46.5957 44.4719 44.0823 44.1219 42.5223 42.6819L29.8863 31.0179C29.0565 30.2499 28.5885 29.2099 28.5885 28.1239V25.6059C28.5885 24.7379 29.3512 24.0339 30.2915 24.0339H33.0193C34.1937 24.0339 35.3225 24.4659 36.1523 25.2319L48.9552 37.0499C50.8597 38.8079 50.6712 41.7639 48.3875 43.2819Z" fill="url(#paint3_linear_92_124)"/>
  <path d="M48.3875 43.2819C46.5957 44.4719 44.0823 44.1219 42.5223 42.6819L29.8863 31.0179C29.0565 30.2499 28.5885 29.2099 28.5885 28.1239V25.6059C28.5885 24.7379 29.3512 24.0339 30.2915 24.0339H33.0193C34.1937 24.0339 35.3225 24.4659 36.1523 25.2319L48.9552 37.0499C50.8597 38.8079 50.6712 41.7639 48.3875 43.2819Z" fill="url(#paint4_linear_92_124)"/>
  <path d="M26.4218 41.9999C28.816 41.9999 30.7552 40.2099 30.7552 37.9999H22.0885C22.0885 40.2099 24.0277 41.9999 26.4218 41.9999Z" fill="url(#paint5_linear_92_124)"/>
  <defs>
    <linearGradient id="paint0_linear_92_124" x1="1.72035" y1="25.0335" x2="31.698" y2="18.9546" gradientUnits="userSpaceOnUse">
      <stop stop-color="#72E6EF"/>
      <stop offset="1" stop-color="#47C3CD"/>
    </linearGradient>
    <linearGradient id="paint1_linear_92_124" x1="43.3245" y1="20.9029" x2="47.7482" y2="20.7348" gradientUnits="userSpaceOnUse">
      <stop stop-color="#72E6EF"/>
      <stop offset="1" stop-color="#47C3CD"/>
    </linearGradient>
    <linearGradient id="paint2_linear_92_124" x1="5.21141" y1="23.1627" x2="43.075" y2="14.4439" gradientUnits="userSpaceOnUse">
      <stop stop-color="#72E6EF"/>
      <stop offset="1" stop-color="#47C3CD"/>
    </linearGradient>
    <linearGradient id="paint3_linear_92_124" x1="26.4346" y1="34.6619" x2="47.4659" y2="29.8109" gradientUnits="userSpaceOnUse">
      <stop stop-color="#72E6EF"/>
      <stop offset="1" stop-color="#47C3CD"/>
    </linearGradient>
    <linearGradient id="paint4_linear_92_124" x1="26.4346" y1="34.6619" x2="47.4659" y2="29.8109" gradientUnits="userSpaceOnUse">
      <stop stop-color="#72E6EF"/>
      <stop offset="1" stop-color="#47C3CD"/>
    </linearGradient>
    <linearGradient id="paint5_linear_92_124" x1="21.2269" y1="40.1291" x2="28.5368" y2="36.7626" gradientUnits="userSpaceOnUse">
      <stop stop-color="#72E6EF"/>
      <stop offset="1" stop-color="#47C3CD"/>
    </linearGradient>
  </defs>
</svg>
