<svg width="36" height="38" viewBox="0 0 36 38" fill="none" xmlns="http://www.w3.org/2000/svg">
  <g clip-path="url(#clip0_296_3399)">
    <path opacity="0.35" d="M9.3733 10.4503C9.1242 12.5472 8.95625 17.4843 11.7841 22.8037C14.612 28.123 18.6319 30.4333 20.4298 31.2478C21.7023 31.958 23.2664 31.9814 24.5974 31.1468C26.679 29.8416 22.3258 21.653 20.2442 22.9582L18.916 23.791L14.5628 15.6024L15.8909 14.7696C17.9725 13.4644 13.6193 5.27583 11.5377 6.58101C10.2055 7.41525 9.44209 8.89797 9.3733 10.4503Z" fill="#FBD862"/>
    <path d="M11.5406 6.57822L15.8931 14.7653C17.9716 13.4579 18.684 10.5704 17.4822 8.3098C16.282 6.05227 13.6225 5.27704 11.5406 6.57822Z" fill="#FBD862"/>
    <path d="M20.2472 22.9557L24.5996 31.1427C26.6778 29.8365 27.3905 26.9479 26.1887 24.6872C24.9874 22.4294 22.329 21.6545 20.2472 22.9557Z" fill="#FBD862"/>
  </g>
  <defs>
    <clipPath id="clip0_296_3399">
      <rect width="30.27" height="28.1835" fill="white" transform="matrix(0.239546 -0.970885 0.960173 0.279404 0.914551 29.6182)"/>
    </clipPath>
  </defs>
</svg>
