<svg width="96" height="96" viewBox="0 0 96 96" fill="none" xmlns="http://www.w3.org/2000/svg">
  <path opacity="0.55"
        d="M95.9999 68H86.9119C86.9879 67.708 87.1039 67.436 87.1639 67.14L91.8039 43.964C92.3959 41.012 91.6399 37.988 89.7319 35.664C87.8279 33.332 85.0079 32 81.9999 32H13.9999C10.9919 32 8.1719 33.332 6.2679 35.664C4.3599 37.992 3.6039 41.016 4.1959 43.964L8.8359 67.14C10.3279 74.592 16.9239 80 24.5239 80H71.4759C75.4559 80 79.1439 78.488 81.9839 76H95.9999V68Z" fill="#fff"/>
  <path
    d="M34.924 32L44.784 17.728C45.544 16.628 46.704 16.08 48.088 16C49.424 16 50.628 16.64 51.38 17.744L61.116 32H70.804L57.984 13.228C55.752 9.964 52.06 8.008 48.104 8C44.268 8.024 40.448 9.924 38.2 13.18L25.2 32H34.924Z" fill="#234361"/>
  <path d="M88 56H48C43.58 56 40 59.58 40 64V68H96V64C96 59.58 92.42 56 88 56Z" fill="#234361"/>
  <path d="M40 88C40 92.42 43.58 96 48 96H88C92.42 96 96 92.42 96 88V76H40V88Z" fill="#234361"/>
</svg>
