<svg width="28" height="29" viewBox="0 0 28 29" fill="none" xmlns="http://www.w3.org/2000/svg">
  <path d="M19.292 6.06149C19.0622 6.29015 16.1058 9.24765 14 11.3535C11.8942 9.24765 8.93784 6.29132 8.708 6.06149C7.79684 5.15032 6.31984 5.15032 5.40867 6.06149C4.4975 6.97265 4.4975 8.44965 5.40867 9.36082C5.63734 9.59065 8.59484 12.547 10.7007 14.6528C8.59484 16.7587 5.6385 19.715 5.40867 19.9448C4.4975 20.856 4.4975 22.333 5.40867 23.2442C6.31984 24.1553 7.79684 24.1553 8.708 23.2442C8.87367 23.0785 22.4257 9.52649 22.5913 9.36082C23.5025 8.44965 23.5025 6.97265 22.5913 6.06149C21.6802 5.15032 20.2032 5.15032 19.292 6.06149Z" fill="#8E8D8D"/>
  <path d="M22.5913 23.2442C23.5025 22.333 23.5025 20.856 22.5913 19.9448C22.3627 19.7162 19.4052 16.7587 17.2993 14.6528L14 17.9522C16.1058 20.058 19.0622 23.0143 19.292 23.2442C20.2032 24.1553 21.6802 24.1553 22.5913 23.2442Z" fill="#8E8D8D"/>
</svg>
