<svg width="25" height="24" viewBox="0 0 25 24" fill="none" xmlns="http://www.w3.org/2000/svg">
  <g clip-path="url(#clip0_233_3829)">
    <path opacity="0.35" d="M21.2599 18V7H3.25989V18C3.25989 19.657 4.60289 21 6.25989 21H18.2599C19.9169 21 21.2599 19.657 21.2599 18Z" fill="#47C3CD"/>
    <path d="M18.2599 3H6.25989C4.60289 3 3.25989 4.343 3.25989 6V7H21.2599V6C21.2599 4.343 19.9169 3 18.2599 3Z" fill="#47C3CD"/>
    <path d="M10.2599 17C10.8119 17 11.2599 17.448 11.2599 18C11.2599 18.552 10.8119 19 10.2599 19C9.70789 19 9.25989 18.552 9.25989 18C9.25989 17.448 9.70789 17 10.2599 17ZM5.25989 18C5.25989 18.552 5.70789 19 6.25989 19C6.81189 19 7.25989 18.552 7.25989 18C7.25989 17.448 6.81189 17 6.25989 17C5.70789 17 5.25989 17.448 5.25989 18ZM5.25989 14C5.25989 14.552 5.70789 15 6.25989 15C6.81189 15 7.25989 14.552 7.25989 14C7.25989 13.448 6.81189 13 6.25989 13C5.70789 13 5.25989 13.448 5.25989 14ZM9.25989 14C9.25989 14.552 9.70789 15 10.2599 15C10.8119 15 11.2599 14.552 11.2599 14C11.2599 13.448 10.8119 13 10.2599 13C9.70789 13 9.25989 13.448 9.25989 14ZM13.2599 14C13.2599 14.552 13.7079 15 14.2599 15C14.8119 15 15.2599 14.552 15.2599 14C15.2599 13.448 14.8119 13 14.2599 13C13.7079 13 13.2599 13.448 13.2599 14ZM13.2599 18C13.2599 18.552 13.7079 19 14.2599 19C14.8119 19 15.2599 18.552 15.2599 18C15.2599 17.448 14.8119 17 14.2599 17C13.7079 17 13.2599 17.448 13.2599 18ZM17.2599 14C17.2599 14.552 17.7079 15 18.2599 15C18.8119 15 19.2599 14.552 19.2599 14C19.2599 13.448 18.8119 13 18.2599 13C17.7079 13 17.2599 13.448 17.2599 14ZM17.2599 10C17.2599 10.552 17.7079 11 18.2599 11C18.8119 11 19.2599 10.552 19.2599 10C19.2599 9.448 18.8119 9 18.2599 9C17.7079 9 17.2599 9.448 17.2599 10ZM13.2599 10C13.2599 10.552 13.7079 11 14.2599 11C14.8119 11 15.2599 10.552 15.2599 10C15.2599 9.448 14.8119 9 14.2599 9C13.7079 9 13.2599 9.448 13.2599 10ZM9.25989 10C9.25989 10.552 9.70789 11 10.2599 11C10.8119 11 11.2599 10.552 11.2599 10C11.2599 9.448 10.8119 9 10.2599 9C9.70789 9 9.25989 9.448 9.25989 10Z" fill="#47C3CD"/>
    <path d="M23.3979 14.3761C22.5709 13.7811 21.4109 13.9561 20.6909 14.6761L14.8589 20.5081C14.4759 20.8921 14.2599 21.4121 14.2599 21.9551V23.2141C14.2599 23.6481 14.6119 24.0001 15.0459 24.0001H16.3049C16.8469 24.0001 17.3679 23.7851 17.7509 23.4011L23.6599 17.4921C24.5389 16.6131 24.4519 15.1351 23.3979 14.3761Z" fill="#47C3CD"/>
  </g>
  <defs>
    <clipPath id="clip0_233_3829">
      <rect width="24" height="24" fill="white" transform="translate(0.259888)"/>
    </clipPath>
  </defs>
</svg>
