<svg width="29" height="31" viewBox="0 0 29 31" fill="" xmlns="http://www.w3.org/2000/svg">
  <path opacity="0.35" d="M23.4766 8.1453L16.4766 3.58149C14.9984 2.61802 13.1528 2.61802 11.6746 3.58149L4.6746 8.1453C3.26877 9.06186 2.40894 10.7124 2.40894 12.4936V23.1425C2.40894 25.2431 3.97577 26.9457 5.90894 26.9457H22.2423C24.1754 26.9457 25.7423 25.2431 25.7423 23.1425V12.4936C25.7423 10.7124 24.8824 9.06186 23.4766 8.1453Z" fill="#FBD862"/>
  <path d="M19.9089 7.92969H8.24227C6.9531 7.92969 5.90894 9.0643 5.90894 10.4651V15.536L14.0756 19.3392L22.2423 15.536V10.4651C22.2423 9.0643 21.1981 7.92969 19.9089 7.92969Z" fill="#FBD862"/>
</svg>
