<svg  viewBox="0 0 18 18" fill="none" xmlns="http://www.w3.org/2000/svg">
  <g clip-path="url(#clip0_532_1707)">
    <path opacity="0.35" d="M2.47981 11.7188C1.29335 10.1213 1.29335 7.878 2.47981 6.2805C3.87239 4.40625 6.17023 2.25 9.3726 2.25C12.575 2.25 14.8728 4.40625 16.2654 6.28125C17.4519 7.87875 17.4519 10.122 16.2654 11.7195C14.8728 13.5938 12.575 15.75 9.3726 15.75C6.17023 15.75 3.87239 13.5938 2.47981 11.7188Z" fill="#47C3CD"/>
    <path d="M9.37256 4.5C7.02514 4.5 5.12256 6.5145 5.12256 9C5.12256 11.4855 7.02514 13.5 9.37256 13.5C11.72 13.5 13.6226 11.4855 13.6226 9C13.6226 6.5145 11.72 4.5 9.37256 4.5ZM10.0809 9.75C9.29818 9.75 8.66423 9.07875 8.66423 8.25C8.66423 7.42125 9.29818 6.75 10.0809 6.75C10.8636 6.75 11.4976 7.42125 11.4976 8.25C11.4976 9.07875 10.8636 9.75 10.0809 9.75Z" fill="#47C3CD"/>
  </g>
  <defs>
    <clipPath id="clip0_532_1707">
      <rect width="17" height="18" fill="white" transform="translate(0.872559)"/>
    </clipPath>
  </defs>
</svg>
