<svg  viewBox="0 0 18 18" fill="none" xmlns="http://www.w3.org/2000/svg">
  <g clip-path="url(#clip0_532_1702)">
    <path opacity="0.35" d="M3.92685 10.5547C4.53247 11.196 8.19952 14.4262 8.45381 14.6955C8.70739 14.964 9.0396 15.0983 9.37181 15.0983C9.70402 15.0983 10.0362 14.964 10.2898 14.6955C10.5448 14.4262 14.2111 11.196 14.8168 10.5547C16.2108 9.07875 16.2108 6.68475 14.8168 5.20875C13.4228 3.73275 11.1618 3.73275 9.76777 5.20875C9.61831 5.3685 9.49081 5.544 9.37252 5.7225C9.25423 5.54325 9.12673 5.3685 8.97585 5.20875C7.58185 3.73275 5.32085 3.73275 3.92685 5.20875C2.53285 6.68475 2.53285 9.07875 3.92685 10.5547Z" fill="#47C3CD"/>
    <path d="M12.8788 5.25C13.4561 5.25 13.9987 5.48775 14.4067 5.91975C14.8147 6.35175 15.0392 6.92625 15.0392 7.5375C15.0392 8.14875 14.8147 8.72325 14.4067 9.15525C14.027 9.55725 12.0614 11.3228 10.8869 12.3773C10.1092 13.0755 9.65303 13.4865 9.37253 13.7438C9.09274 13.4873 8.63657 13.0762 7.85953 12.3787C6.68512 11.3235 4.71878 9.558 4.33912 9.156C3.49691 8.26425 3.49691 6.813 4.33912 5.92125C4.74641 5.48775 5.28899 5.25 5.86628 5.25C6.44357 5.25 6.96207 5.50425 7.39416 5.91975C7.45932 5.9895 9.37253 7.6365 9.37253 7.6365C9.37253 7.6365 11.2857 5.9895 11.3509 5.91975C11.7964 5.50425 12.3015 5.25 12.8788 5.25ZM12.8788 3C11.7823 3 10.6851 3.44325 9.84853 4.329C9.6672 4.521 9.51491 4.731 9.37253 4.94625C9.23016 4.731 9.07787 4.521 8.89653 4.329C8.05999 3.44325 6.96278 3 5.86628 3C4.76978 3 3.67257 3.44325 2.83603 4.329C1.16224 6.10125 1.16224 8.97375 2.83603 10.746C3.56349 11.5162 7.96507 15.393 8.27037 15.7162C8.57495 16.0387 8.97374 16.1993 9.37253 16.1993C9.77132 16.1993 10.1701 16.038 10.4747 15.7162C10.7807 15.393 15.1823 11.5155 15.909 10.746C17.5828 8.97375 17.5828 6.10125 15.909 4.329C15.0725 3.44325 13.9753 3 12.8788 3Z" fill="#47C3CD"/>
  </g>
  <defs>
    <clipPath id="clip0_532_1702">
      <rect width="17" height="18" fill="white" transform="translate(0.872559)"/>
    </clipPath>
  </defs>
</svg>
