<svg width="19" height="21" viewBox="0 0 19 21" fill="none" xmlns="http://www.w3.org/2000/svg">
  <path d="M9.67877 12.2696C10.5172 12.2696 11.1969 11.5314 11.1969 10.6209C11.1969 9.71032 10.5172 8.97217 9.67877 8.97217C8.84033 8.97217 8.16064 9.71032 8.16064 10.6209C8.16064 11.5314 8.84033 12.2696 9.67877 12.2696Z" fill="#234361"/>
  <path d="M14.2331 3.20166H5.12436C3.86659 3.20166 2.84717 4.30877 2.84717 5.67472V15.567C2.84717 16.9329 3.86659 18.04 5.12436 18.04H14.2331C15.4909 18.04 16.5103 16.9329 16.5103 15.567V5.67472C16.5103 4.30877 15.4909 3.20166 14.2331 3.20166ZM9.67874 14.7426C7.586 14.7426 5.88342 12.8936 5.88342 10.6208C5.88342 8.3481 7.586 6.49907 9.67874 6.49907C11.7715 6.49907 13.4741 8.3481 13.4741 10.6208C13.4741 12.8936 11.7715 14.7426 9.67874 14.7426ZM13.4741 6.49907C13.0551 6.49907 12.715 6.12976 12.715 5.67472C12.715 5.21968 13.0551 4.85037 13.4741 4.85037C13.8931 4.85037 14.2331 5.21968 14.2331 5.67472C14.2331 6.12976 13.8931 6.49907 13.4741 6.49907Z" fill="#234361"/>
  <path opacity="0.35" d="M9.67874 14.7426C7.586 14.7426 5.88342 12.8935 5.88342 10.6208C5.88342 8.34805 7.586 6.49902 9.67874 6.49902C11.7715 6.49902 13.4741 8.34805 13.4741 10.6208C13.4741 12.8935 11.7715 14.7426 9.67874 14.7426ZM9.67874 8.97208C8.8415 8.97208 8.16061 9.71153 8.16061 10.6208C8.16061 11.5301 8.8415 12.2695 9.67874 12.2695C10.516 12.2695 11.1969 11.5301 11.1969 10.6208C11.1969 9.71153 10.516 8.97208 9.67874 8.97208Z" fill="#234361"/>
  <g opacity="0.35">
    <path opacity="0.35" d="M13.474 6.49881C13.8932 6.49881 14.2331 6.12973 14.2331 5.67445C14.2331 5.21917 13.8932 4.8501 13.474 4.8501C13.0548 4.8501 12.715 5.21917 12.715 5.67445C12.715 6.12973 13.0548 6.49881 13.474 6.49881Z" fill="#234361"/>
  </g>
</svg>
