<svg  viewBox="0 0 56 56" fill="none" xmlns="http://www.w3.org/2000/svg">
  <rect width="55.5348" height="55.5348" rx="27.7674" fill="#FFE17A"/>
  <path opacity="0.35" d="M22.7164 31.5101C23.5954 30.6311 32.3374 21.8891 33.2164 21.0101C34.9744 19.2521 34.9744 16.4036 33.2164 14.6456C31.4584 12.8876 28.6099 12.8876 26.8519 14.6456C25.9729 15.5246 17.2309 24.2666 16.3519 25.1456C14.5939 26.9036 14.5939 29.7521 16.3519 31.5101C18.1099 33.2681 20.9599 33.2681 22.7164 31.5101Z" fill="#47C3CD"/>
  <path d="M16.3534 31.5101C17.2324 32.3891 25.9744 41.1311 26.8534 42.0101C28.6114 43.7681 31.4599 43.7681 33.2179 42.0101C34.9759 40.2521 34.9759 37.4036 33.2179 35.6456C32.3389 34.7666 23.5969 26.0246 22.7179 25.1456C20.9599 23.3876 18.1114 23.3876 16.3534 25.1456C14.5954 26.9036 14.5954 29.7536 16.3534 31.5101Z" fill="#47C3CD"/>
</svg>
