<svg  viewBox="0 0 124 124" fill="none" xmlns="http://www.w3.org/2000/svg">
  <path d="M69.75 36.1667C79.7371 36.1667 87.8333 28.0705 87.8333 18.0833C87.8333 8.09618 79.7371 0 69.75 0C59.7628 0 51.6666 8.09618 51.6666 18.0833C51.6666 28.0705 59.7628 36.1667 69.75 36.1667Z" fill="url(#paint0_linear_970_3791)"/>
  <path d="M38.75 36.1667C45.8837 36.1667 51.6667 30.3837 51.6667 23.25C51.6667 16.1164 45.8837 10.3334 38.75 10.3334C31.6164 10.3334 25.8334 16.1164 25.8334 23.25C25.8334 30.3837 31.6164 36.1667 38.75 36.1667Z" fill="url(#paint1_linear_970_3791)"/>
  <path opacity="0.35" d="M87.8333 36.1666H25.8333C20.1264 36.1666 15.5 40.793 15.5 46.5V82.6666C15.5 88.3736 20.1264 93 25.8333 93H87.8333C93.5403 93 98.1667 88.3736 98.1667 82.6666V46.5C98.1667 40.793 93.5403 36.1666 87.8333 36.1666Z" fill="url(#paint2_linear_970_3791)"/>
  <path d="M118.833 70.0394H98.1666V49.3727L111.032 46.7894C111.924 46.4916 112.875 46.4106 113.805 46.5531C114.735 46.6956 115.617 47.0575 116.38 47.6089C117.142 48.1602 117.762 48.8852 118.189 49.7238C118.616 50.5624 118.837 51.4905 118.833 52.4314V70.0394Z" fill="url(#paint3_linear_970_3791)"/>
  <path d="M118.833 59.7061H98.1666V80.3727L111.032 82.9561C111.924 83.2537 112.874 83.3347 113.803 83.1925C114.733 83.0503 115.615 82.6888 116.378 82.1381C117.14 81.5873 117.76 80.863 118.187 80.0251C118.614 79.1872 118.836 78.2597 118.833 77.3192V59.7061Z" fill="url(#paint4_linear_970_3791)"/>
  <path d="M67.1666 93H46.5L37.2 105.4C36.7929 105.943 36.4967 106.56 36.3283 107.218C36.1599 107.875 36.1226 108.559 36.2186 109.231C36.3145 109.902 36.5418 110.549 36.8875 111.132C37.2332 111.716 37.6905 112.226 38.2333 112.633C38.7761 113.04 39.3938 113.337 40.051 113.505C40.7083 113.673 41.3923 113.711 42.064 113.615C42.7356 113.519 43.3818 113.291 43.9657 112.946C44.5495 112.6 45.0595 112.143 45.4666 111.6L56.8333 96.441L68.2 111.6C68.6812 112.242 69.3053 112.763 70.0227 113.121C70.7401 113.48 71.5312 113.667 72.3333 113.667C73.2928 113.667 74.2334 113.399 75.0496 112.895C75.8658 112.391 76.5254 111.669 76.9545 110.811C77.3836 109.952 77.5653 108.992 77.4791 108.036C77.3929 107.08 77.0423 106.168 76.4666 105.4L67.1666 93Z" fill="url(#paint5_linear_970_3791)"/>
  <defs>
    <linearGradient id="paint0_linear_970_3791" x1="48.0712" y1="19.2516" x2="83.4475" y2="11.7321" gradientUnits="userSpaceOnUse">
      <stop stop-color="#72E6EF"/>
      <stop offset="1" stop-color="#47C3CD"/>
    </linearGradient>
    <linearGradient id="paint1_linear_970_3791" x1="23.2652" y1="24.0845" x2="48.534" y2="18.7134" gradientUnits="userSpaceOnUse">
      <stop stop-color="#72E6EF"/>
      <stop offset="1" stop-color="#47C3CD"/>
    </linearGradient>
    <linearGradient id="paint2_linear_970_3791" x1="7.2819" y1="66.4191" x2="84.4218" y2="42.5695" gradientUnits="userSpaceOnUse">
      <stop stop-color="#72E6EF"/>
      <stop offset="1" stop-color="#47C3CD"/>
    </linearGradient>
    <linearGradient id="paint3_linear_970_3791" x1="96.1121" y1="59.0229" x2="116.53" y2="55.215" gradientUnits="userSpaceOnUse">
      <stop stop-color="#72E6EF"/>
      <stop offset="1" stop-color="#47C3CD"/>
    </linearGradient>
    <linearGradient id="paint4_linear_970_3791" x1="96.1121" y1="72.2442" x2="116.53" y2="68.4363" gradientUnits="userSpaceOnUse">
      <stop stop-color="#72E6EF"/>
      <stop offset="1" stop-color="#47C3CD"/>
    </linearGradient>
    <linearGradient id="paint5_linear_970_3791" x1="32.0576" y1="104.001" x2="67.8465" y2="88.7866" gradientUnits="userSpaceOnUse">
      <stop stop-color="#72E6EF"/>
      <stop offset="1" stop-color="#47C3CD"/>
    </linearGradient>
  </defs>
</svg>
