<svg width="29" height="28" viewBox="0 0 29 28" fill="none" xmlns="http://www.w3.org/2000/svg">
  <path opacity="0.35" d="M21.3016 24.5H7.30157C5.36841 24.5 3.80157 22.9332 3.80157 21V11.6667C3.80157 9.73352 5.36841 8.16669 7.30157 8.16669H21.3016C23.2347 8.16669 24.8016 9.73352 24.8016 11.6667V21C24.8016 22.9332 23.2347 24.5 21.3016 24.5Z" fill="#47C3CD"/>
  <path d="M9.63491 8.16669C9.63491 5.58952 11.7244 3.50002 14.3016 3.50002C16.8787 3.50002 18.9682 5.58952 18.9682 8.16669H21.3016C21.3016 4.30035 18.1679 1.16669 14.3016 1.16669C10.4352 1.16669 7.30157 4.30035 7.30157 8.16669H9.63491Z" fill="#47C3CD"/>
  <path d="M14.3016 18.0833C15.2681 18.0833 16.0516 17.2998 16.0516 16.3333C16.0516 15.3668 15.2681 14.5833 14.3016 14.5833C13.3351 14.5833 12.5516 15.3668 12.5516 16.3333C12.5516 17.2998 13.3351 18.0833 14.3016 18.0833Z" fill="#47C3CD"/>
  <path d="M20.1349 18.0833C21.1014 18.0833 21.8849 17.2998 21.8849 16.3333C21.8849 15.3668 21.1014 14.5833 20.1349 14.5833C19.1684 14.5833 18.3849 15.3668 18.3849 16.3333C18.3849 17.2998 19.1684 18.0833 20.1349 18.0833Z" fill="#47C3CD"/>
  <path d="M8.46823 18.0833C9.43473 18.0833 10.2182 17.2998 10.2182 16.3333C10.2182 15.3668 9.43473 14.5833 8.46823 14.5833C7.50173 14.5833 6.71823 15.3668 6.71823 16.3333C6.71823 17.2998 7.50173 18.0833 8.46823 18.0833Z" fill="#47C3CD"/>
</svg>
