<svg width="53" height="53" viewBox="0 0 53 53" fill="none" xmlns="http://www.w3.org/2000/svg">
  <path opacity="0.35" d="M32.983 37.2923L17.8948 37.1147L17.8366 42.0593C17.821 43.385 16.2138 44.0322 15.285 43.0878L6.54024 34.2023C5.69875 33.3495 5.71496 31.9722 6.57628 31.1394L15.5256 22.4601C16.4786 21.5378 18.07 22.2248 18.0545 23.5483L17.9963 28.4929L33.0845 28.6705C35.4662 28.6985 37.4181 26.7921 37.4461 24.4103L46.0679 24.5118C45.9839 31.6549 40.1262 37.3764 32.983 37.2923Z" fill="#234361"/>
  <path d="M37.446 24.4104L37.5701 13.8637C37.5954 11.7169 39.0867 9.74252 41.2096 9.42258C43.9155 9.01681 46.2255 11.1157 46.1947 13.7346L46.0678 24.5118C45.9838 31.655 40.1261 37.3764 32.9829 37.2924C32.9829 37.2924 37.3446 33.0322 37.446 24.4104Z" fill="#234361"/>
</svg>
