<svg  viewBox="0 0 56 56" fill="none" xmlns="http://www.w3.org/2000/svg">
  <rect x="0.248535" width="55.5348" height="55.5348" rx="27.7674" fill="#FFE17A"/>
  <path opacity="0.35" d="M30.8341 29.7108C29.9551 28.8318 21.2131 20.0898 20.3341 19.2108C18.5761 17.4528 18.5761 14.6043 20.3341 12.8463C22.0921 11.0883 24.9406 11.0883 26.6986 12.8463C27.5776 13.7253 36.3196 22.4673 37.1986 23.3463C38.9566 25.1043 38.9566 27.9528 37.1986 29.7108C35.4406 31.4688 32.5906 31.4688 30.8341 29.7108Z" fill="#47C3CD"/>
  <path d="M37.1972 29.7108C36.3182 30.5898 27.5762 39.3318 26.6972 40.2108C24.9392 41.9688 22.0907 41.9688 20.3327 40.2108C18.5747 38.4528 18.5747 35.6043 20.3327 33.8463C21.2117 32.9673 29.9537 24.2253 30.8327 23.3463C32.5907 21.5883 35.4392 21.5883 37.1972 23.3463C38.9552 25.1043 38.9552 27.9543 37.1972 29.7108Z" fill="#47C3CD"/>
</svg>
