<svg width="20" height="21" viewBox="0 0 20 21" fill="none" xmlns="http://www.w3.org/2000/svg">
  <path opacity="0.35" d="M3.19247 11.5257L5.53418 12.5223C5.78164 12.6279 5.97292 12.848 6.05642 13.1216L7.03333 16.3515C7.24132 17.0398 8.02088 17.2863 8.53628 16.8263L10.2275 15.3185C10.4415 15.1273 10.7527 15.1372 10.9569 15.3416L13.121 17.5097C13.9067 18.2969 15.1826 17.846 15.3914 16.7076L17.6526 4.37443C17.7938 3.60366 17.0856 2.97468 16.4176 3.27804L3.16894 9.29582C2.25199 9.71377 2.26641 11.1317 3.19247 11.5257Z" fill="#234361"/>
  <path d="M9.66874 14.1416L14.9746 6.58804C15.2236 6.23356 14.8144 5.77852 14.4827 6.03984L5.88025 12.8012C5.95464 12.896 6.01992 13.0007 6.05635 13.1219L7.03327 16.3517C7.12891 16.6674 7.34676 16.885 7.60257 16.9889C8.288 17.1999 9.66874 14.1416 9.66874 14.1416Z" fill="#234361"/>
</svg>
