<svg width="24" height="24" viewBox="0 0 24 24" fill="none" xmlns="http://www.w3.org/2000/svg">
  <path opacity="0.35" d="M12 22C17.5228 22 22 17.5228 22 12C22 6.47715 17.5228 2 12 2C6.47715 2 2 6.47715 2 12C2 17.5228 6.47715 22 12 22Z" fill="#47C3CD"/>
  <path d="M10.586 13.414C10.144 12.972 8.39301 10.316 6.95501 8.09201C6.47301 7.34701 7.34701 6.47301 8.09201 6.95401C10.316 8.39201 12.972 10.144 13.414 10.585C14.195 11.366 14.195 12.632 13.414 13.413C12.633 14.195 11.367 14.195 10.586 13.414Z" fill="#47C3CD"/>
  <path d="M10.1221 2.182L11.2141 3.819C11.5881 4.38 12.4131 4.38 12.7881 3.819L13.8801 2.182C13.2691 2.066 12.6431 2 12.0001 2C11.3571 2 10.7311 2.066 10.1221 2.182Z" fill="#47C3CD"/>
</svg>
