<svg width="19" height="21" viewBox="0 0 19 21" fill="none" xmlns="http://www.w3.org/2000/svg">
  <path d="M12.5188 5.6748C12.0998 5.6748 11.7598 6.04412 11.7598 6.49916C11.7598 6.9542 12.0998 7.32351 12.5188 7.32351C12.9378 7.32351 13.2779 6.9542 13.2779 6.49916C13.2779 6.04412 12.9378 5.6748 12.5188 5.6748Z" fill="#234361"/>
  <path opacity="0.35" d="M16.7945 4.66557C17.0321 4.3622 16.7338 3.9154 16.3953 4.06956C15.8298 4.32676 15.2111 4.55675 14.7724 4.65073C14.7504 4.65732 14.7322 4.66474 14.7109 4.67134C14.046 3.9591 13.1359 3.51807 12.1278 3.51807C10.0966 3.51807 8.4494 5.30691 8.4494 7.51288C8.4494 7.62912 8.44029 7.84345 8.4494 7.95639C6.15247 7.95639 4.31554 6.86165 2.90064 5.33494C2.5416 4.9475 1.93132 5.20964 1.90399 5.75784C1.89564 5.90869 1.89185 6.06037 1.89185 6.20958C1.89185 7.45353 2.78678 8.67522 4.18118 9.43198C3.92462 9.5037 3.64149 9.55563 3.34697 9.55563C3.0775 9.55563 2.70329 9.43528 2.40042 9.3075C2.16207 9.20693 1.92373 9.44599 1.99356 9.71309C2.35487 11.0898 3.80696 12.018 5.11787 12.304C4.81121 12.5002 4.19333 12.52 3.89198 12.52C3.80317 12.52 3.61948 12.5019 3.42136 12.4771C3.10103 12.4376 2.8847 12.8308 3.07447 13.1135C3.71739 14.0731 4.93569 14.6048 6.10693 14.6271C5.31295 15.303 4.00736 15.6806 2.7048 15.8446C2.24481 15.9032 2.14461 16.5865 2.56589 16.7951C3.76142 17.3878 4.95543 17.7225 6.27999 17.7225C12.354 17.7225 15.8062 12.6948 15.8062 7.95556C15.8062 7.8789 15.8047 7.7198 15.8025 7.55905C15.8025 7.54339 15.8062 7.52772 15.8062 7.51206C15.8062 7.48815 15.7994 7.46507 15.7994 7.44117C15.7971 7.32081 15.7949 7.20787 15.7918 7.14934C16.2503 6.78993 16.6655 6.36786 17.0261 5.89633C17.1528 5.73063 17.001 5.48827 16.8128 5.55504C16.4059 5.69931 15.9816 5.8007 15.5444 5.85758C15.9307 5.60698 16.4082 5.15935 16.7945 4.66557Z" fill="#234361"/>
</svg>
