<svg width="19" height="21" viewBox="0 0 19 21" fill="none" xmlns="http://www.w3.org/2000/svg">
  <path opacity="0.35" d="M9.27657 2.37744C5.08426 2.37744 1.68593 6.06807 1.68593 10.621C1.68593 11.9333 1.97589 13.1691 2.47764 14.2704L1.71478 17.5835C1.54095 18.3378 2.17021 19.022 2.86552 18.8332L5.9162 18.0047C6.93031 18.5496 8.06814 18.8645 9.27657 18.8645C13.4689 18.8645 16.8672 15.1739 16.8672 10.621C16.8672 6.06807 13.4689 2.37744 9.27657 2.37744Z" fill="#234361"/>
  <path d="M12.6112 11.8299C11.9971 11.163 11.0012 11.163 10.3872 11.8299L9.99548 12.2553L7.77142 9.83992L8.1631 9.41456C8.77718 8.74765 8.77718 7.6661 8.1631 6.9992C7.54902 6.3323 6.55312 6.3323 5.93904 6.9992C5.5466 7.42539 5.4077 8.02057 5.517 8.56877C5.61037 9.32635 5.97699 11.0657 7.42149 12.6345C8.86599 14.2032 10.4676 14.6014 11.1652 14.7028C11.67 14.8215 12.218 14.6706 12.6105 14.2444C13.2253 13.5775 13.2253 12.4968 12.6112 11.8299Z" fill="#234361"/>
</svg>
